<svg xmlns="http://www.w3.org/2000/svg" width="226.828" height="67" viewBox="0 0 226.828 67"><g transform="translate(-847.172 -425)"><text transform="translate(878 464)" fill="#fff" font-size="40" font-family="QanelasSoftDEMO-ExtraBold, Qanelas Soft DEMO" font-weight="800" letter-spacing="0.05em"><tspan x="0" y="0">MGC</tspan></text><text transform="translate(1054 462)" fill="#37d36a" font-size="36" font-family="Sen-Bold, Sen" font-weight="700" letter-spacing="0.08em"><tspan x="0" y="0">&gt;</tspan></text><g transform="translate(845 436.197)"><path d="M4,24.955l9.977-9.977L4,5" transform="translate(1 -2)" fill="none" stroke="#37d36a" stroke-linecap="round" stroke-linejoin="round" stroke-width="4"/><path d="M0,0H12" transform="translate(18 27.803)" fill="none" stroke="#37d36a" stroke-linecap="round" stroke-width="4"/></g><circle cx="2.5" cy="2.5" r="2.5" transform="translate(979 459)" fill="#37d36a"/><path d="M19.548-25.2h-3.6a.816.816,0,0,0-.9.9v7.981A6.768,6.768,0,0,0,9.684-18.5c-4.716,0-8.6,4.14-8.6,9.5S4.968.5,9.684.5a6.768,6.768,0,0,0,5.364-2.185V-.9a.816.816,0,0,0,.9.9h3.6a.816.816,0,0,0,.9-.9V-24.3A.816.816,0,0,0,19.548-25.2ZM10.764-4.608A4.111,4.111,0,0,1,6.48-9a4.111,4.111,0,0,1,4.284-4.392A4.111,4.111,0,0,1,15.048-9,4.111,4.111,0,0,1,10.764-4.608ZM34.956-18.5A9.289,9.289,0,0,0,25.308-9c0,5.364,3.816,9.5,9.792,9.5,3.672,0,6.624-1.62,8.028-4.752.288-.576-.072-1.008-.72-1.008l-3.456.036a1.646,1.646,0,0,0-1.116.468,4.314,4.314,0,0,1-2.664.9,4.08,4.08,0,0,1-4.21-2.988H42.984a.872.872,0,0,0,.972-.828c.036-.432.072-.864.072-1.332C44.028-14.436,40.212-18.5,34.956-18.5Zm-4.017,7.56a3.824,3.824,0,0,1,3.981-2.772,3.6,3.6,0,0,1,3.732,2.772ZM65.528-29.393H62.407a.971.971,0,0,0-1.008.756L55.3-6.922l-3.2-10.322A.971.971,0,0,0,51.084-18H47.232c-.648,0-.972.4-.756,1.044L52.344-.72A1,1,0,0,0,53.352,0H57.24a1,1,0,0,0,1.008-.72l8-27.629C66.464-29,66.176-29.393,65.528-29.393Z" transform="translate(985 464)" fill="#37d36a"/><text transform="translate(935 488)" fill="#fff" font-size="14" font-family="Montserrat-Regular, Montserrat" letter-spacing="0.05em"><tspan x="0" y="0">web development</tspan></text><line x1="160" transform="translate(913.5 472.5)" fill="none" stroke="#37d36a" stroke-width="1"/></g></svg>