<svg xmlns="http://www.w3.org/2000/svg" width="29.453" height="29.453" viewBox="0 0 29.453 29.453"><path d="M26.3,32H3.156A3.157,3.157,0,0,0,0,35.156V58.3a3.156,3.156,0,0,0,3.156,3.156H26.3A3.156,3.156,0,0,0,29.453,58.3V35.156A3.156,3.156,0,0,0,26.3,32ZM18.231,57.226c-.552.1-.756-.243-.756-.526,0-.355.013-2.17.013-3.636a2.562,2.562,0,0,0-.743-2.018c2.433-.27,5-.6,5-4.806a3.375,3.375,0,0,0-1.124-2.564,4.112,4.112,0,0,0-.112-2.958c-.914-.283-3,1.177-3,1.177a10.342,10.342,0,0,0-5.47,0s-2.091-1.459-3-1.177a4.08,4.08,0,0,0-.112,2.958A3.3,3.3,0,0,0,7.889,46.24c0,4.181,2.452,4.536,4.885,4.806a2.383,2.383,0,0,0-.7,1.466A2.307,2.307,0,0,1,8.9,51.6a2.29,2.29,0,0,0-1.676-1.124c-1.065-.013-.072.671-.072.671.71.329,1.21,1.591,1.21,1.591.638,1.953,3.688,1.3,3.688,1.3,0,.914.013,2.4.013,2.669s-.2.625-.756.526A10.907,10.907,0,0,1,3.931,46.819,10.433,10.433,0,0,1,14.582,36.2,10.666,10.666,0,0,1,25.508,46.819,10.807,10.807,0,0,1,18.231,57.226Zm-6.449-4.017c-.125.026-.243-.026-.256-.112s.072-.184.2-.21.243.039.256.125-.066.171-.2.2Zm-.625-.059c0,.085-.1.158-.23.158s-.243-.059-.243-.158.1-.158.23-.158S11.157,53.051,11.157,53.15Zm-.9-.072c-.026.085-.158.125-.27.085s-.21-.125-.184-.21.158-.125.27-.1c.131.039.217.138.184.224Zm-.809-.355c-.059.072-.184.059-.283-.039s-.125-.21-.059-.27.184-.059.283.039S9.507,52.67,9.447,52.722Zm-.6-.6c-.059.039-.171,0-.243-.1s-.072-.21,0-.256.184-.013.243.085A.193.193,0,0,1,8.849,52.124Zm-.427-.638c-.059.059-.158.026-.23-.039-.072-.085-.085-.184-.026-.23s.158-.026.23.039C8.468,51.342,8.481,51.44,8.422,51.486ZM7.981,51a.124.124,0,0,1-.184.026c-.085-.039-.125-.112-.1-.171a.155.155,0,0,1,.184-.026C7.968,50.875,8.008,50.947,7.981,51Z" transform="translate(0 -32)" fill="#f3f3f3"/></svg>