<svg xmlns="http://www.w3.org/2000/svg" width="29.453" height="29.453" viewBox="0 0 29.453 29.453"><path d="M23.317,0H6.136A6.137,6.137,0,0,0,0,6.136V23.317a6.137,6.137,0,0,0,6.136,6.136H23.317a6.136,6.136,0,0,0,6.136-6.136V6.136A6.136,6.136,0,0,0,23.317,0ZM9.818,23.317H6.136V9.818H9.818ZM7.977,8.262A2.165,2.165,0,1,1,10.124,6.1,2.157,2.157,0,0,1,7.977,8.262ZM24.544,23.317H20.863V16.44c0-4.133-4.909-3.82-4.909,0v6.877H12.272V9.818h3.682v2.166c1.713-3.174,8.59-3.408,8.59,3.039Z" fill="#f3f3f3"/></svg>