<svg xmlns="http://www.w3.org/2000/svg" width="226.828" height="62.716" viewBox="0 0 226.828 62.716"><g transform="translate(-847.172 -428)"><path d="M29.4-28H24.04a1.132,1.132,0,0,0-1.16.76L16.4-11.84,9.92-27.24A1.132,1.132,0,0,0,8.76-28H3.4a.906.906,0,0,0-1,1V-1a.906.906,0,0,0,1,1H7.8a.906.906,0,0,0,1-1V-17.166L13.88-5.12a1.132,1.132,0,0,0,1.16.76h2.72a1.132,1.132,0,0,0,1.16-.76L24-17.166V-1a.906.906,0,0,0,1,1h4.4a.906.906,0,0,0,1-1V-27A.906.906,0,0,0,29.4-28ZM63.28-15.32H51.68a.906.906,0,0,0-1,1v3.6a.906.906,0,0,0,1,1h6.028c-1.136,3.185-4.142,4.44-7.148,4.44C45.84-5.28,42.4-8.6,42.4-14c0-5,3.2-8.32,8.16-8.32a8.017,8.017,0,0,1,6.68,3.2,1.223,1.223,0,0,0,1.16.72h4.72c.72,0,1.08-.44.84-1.12-1.64-5.12-7.04-9.04-13.4-9.04A14.194,14.194,0,0,0,36-14C36-5.76,41.96.56,49.76.56c3.726,0,6.632-1.317,8.52-3.829V-1a.906.906,0,0,0,1,1h4a.906.906,0,0,0,1-1V-14.32a.906.906,0,0,0-1-1ZM83.84.56A13.712,13.712,0,0,0,97.32-9.36c.16-.64-.2-1.04-.88-1.04H91.72a1.15,1.15,0,0,0-1.12.8,7.188,7.188,0,0,1-6.76,3.92C78.88-5.68,75.68-9,75.68-14s3.2-8.32,8.16-8.32A7.188,7.188,0,0,1,90.6-18.4a1.15,1.15,0,0,0,1.12.8h4.72a.828.828,0,0,0,.88-1.12,13.748,13.748,0,0,0-13.48-9.84A14.194,14.194,0,0,0,69.28-14,14.194,14.194,0,0,0,83.84.56Z" transform="translate(878 464)" fill="#fff"/><text transform="translate(1054 462)" fill="#37d36a" font-size="36" font-family="Sen-Bold, Sen" font-weight="700" letter-spacing="0.08em"><tspan x="0" y="0">&gt;</tspan></text><g transform="translate(845 436.197)"><path d="M4,24.955l9.977-9.977L4,5" transform="translate(1 -2)" fill="none" stroke="#37d36a" stroke-linecap="round" stroke-linejoin="round" stroke-width="4"/><path d="M0,0H12" transform="translate(18 27.803)" fill="none" stroke="#37d36a" stroke-linecap="round" stroke-width="4"/></g><circle cx="2.5" cy="2.5" r="2.5" transform="translate(979 459)" fill="#37d36a"/><path d="M19.548-25.2h-3.6a.816.816,0,0,0-.9.9v7.981A6.768,6.768,0,0,0,9.684-18.5c-4.716,0-8.6,4.14-8.6,9.5S4.968.5,9.684.5a6.768,6.768,0,0,0,5.364-2.185V-.9a.816.816,0,0,0,.9.9h3.6a.816.816,0,0,0,.9-.9V-24.3A.816.816,0,0,0,19.548-25.2ZM10.764-4.608A4.111,4.111,0,0,1,6.48-9a4.111,4.111,0,0,1,4.284-4.392A4.111,4.111,0,0,1,15.048-9,4.111,4.111,0,0,1,10.764-4.608ZM34.956-18.5A9.289,9.289,0,0,0,25.308-9c0,5.364,3.816,9.5,9.792,9.5,3.672,0,6.624-1.62,8.028-4.752.288-.576-.072-1.008-.72-1.008l-3.456.036a1.646,1.646,0,0,0-1.116.468,4.314,4.314,0,0,1-2.664.9,4.08,4.08,0,0,1-4.21-2.988H42.984a.872.872,0,0,0,.972-.828c.036-.432.072-.864.072-1.332C44.028-14.436,40.212-18.5,34.956-18.5Zm-4.017,7.56a3.824,3.824,0,0,1,3.981-2.772,3.6,3.6,0,0,1,3.732,2.772ZM65.528-29.393H62.407a.971.971,0,0,0-1.008.756L55.3-6.922l-3.2-10.322A.971.971,0,0,0,51.084-18H47.232c-.648,0-.972.4-.756,1.044L52.344-.72A1,1,0,0,0,53.352,0H57.24a1,1,0,0,0,1.008-.72l8-27.629C66.464-29,66.176-29.393,65.528-29.393Z" transform="translate(985 464)" fill="#37d36a"/><path d="M12.194-7.364,9.408,0H8.47L6.146-6.034,3.822,0H2.884L.112-7.364h.952l2.31,6.258L5.74-7.364h.854L8.946-1.106l2.338-6.258Zm8.4,3.99h-6.16a2.632,2.632,0,0,0,.882,1.855,2.928,2.928,0,0,0,2.016.707,3.177,3.177,0,0,0,1.26-.245,2.752,2.752,0,0,0,.994-.721l.56.644a3.153,3.153,0,0,1-1.225.9A4.143,4.143,0,0,1,17.3.07,4.088,4.088,0,0,1,15.3-.413,3.482,3.482,0,0,1,13.93-1.75a3.812,3.812,0,0,1-.49-1.932,3.947,3.947,0,0,1,.469-1.932A3.4,3.4,0,0,1,15.2-6.944a3.6,3.6,0,0,1,1.841-.476,3.558,3.558,0,0,1,1.834.476,3.374,3.374,0,0,1,1.274,1.323,3.984,3.984,0,0,1,.462,1.939ZM17.038-6.566a2.5,2.5,0,0,0-1.785.679,2.667,2.667,0,0,0-.819,1.771h5.222a2.667,2.667,0,0,0-.819-1.771A2.522,2.522,0,0,0,17.038-6.566ZM27.132-7.42a3.782,3.782,0,0,1,1.876.469,3.354,3.354,0,0,1,1.316,1.323A3.929,3.929,0,0,1,30.8-3.682a3.929,3.929,0,0,1-.476,1.946,3.4,3.4,0,0,1-1.316,1.33A3.738,3.738,0,0,1,27.132.07a3.47,3.47,0,0,1-1.659-.392A3.032,3.032,0,0,1,24.29-1.456V0h-.952V-10.388h.994v4.424a3.064,3.064,0,0,1,1.183-1.085A3.482,3.482,0,0,1,27.132-7.42Zm-.07,6.608a2.79,2.79,0,0,0,1.4-.357,2.522,2.522,0,0,0,.987-1.015,3.09,3.09,0,0,0,.357-1.5,3.09,3.09,0,0,0-.357-1.5A2.522,2.522,0,0,0,28.462-6.2a2.79,2.79,0,0,0-1.4-.357,2.779,2.779,0,0,0-1.407.357,2.535,2.535,0,0,0-.98,1.015,3.09,3.09,0,0,0-.357,1.5,3.09,3.09,0,0,0,.357,1.5,2.535,2.535,0,0,0,.98,1.015A2.779,2.779,0,0,0,27.062-.812Zm17.556-9.576V0h-.952V-1.456A3.031,3.031,0,0,1,42.483-.322,3.47,3.47,0,0,1,40.824.07a3.738,3.738,0,0,1-1.876-.476,3.4,3.4,0,0,1-1.316-1.33,3.929,3.929,0,0,1-.476-1.946,3.929,3.929,0,0,1,.476-1.946,3.354,3.354,0,0,1,1.316-1.323,3.782,3.782,0,0,1,1.876-.469,3.482,3.482,0,0,1,1.617.371,3.064,3.064,0,0,1,1.183,1.085v-4.424ZM40.908-.812A2.751,2.751,0,0,0,42.3-1.169a2.535,2.535,0,0,0,.98-1.015,3.09,3.09,0,0,0,.357-1.5,3.09,3.09,0,0,0-.357-1.5A2.535,2.535,0,0,0,42.3-6.2a2.751,2.751,0,0,0-1.393-.357A2.779,2.779,0,0,0,39.5-6.2a2.535,2.535,0,0,0-.98,1.015,3.09,3.09,0,0,0-.357,1.5,3.09,3.09,0,0,0,.357,1.5,2.535,2.535,0,0,0,.98,1.015A2.779,2.779,0,0,0,40.908-.812ZM54.5-3.374h-6.16a2.632,2.632,0,0,0,.882,1.855,2.928,2.928,0,0,0,2.016.707,3.177,3.177,0,0,0,1.26-.245,2.752,2.752,0,0,0,.994-.721l.56.644a3.153,3.153,0,0,1-1.225.9A4.143,4.143,0,0,1,51.212.07,4.088,4.088,0,0,1,49.2-.413,3.482,3.482,0,0,1,47.838-1.75a3.812,3.812,0,0,1-.49-1.932,3.947,3.947,0,0,1,.469-1.932,3.4,3.4,0,0,1,1.288-1.33,3.6,3.6,0,0,1,1.841-.476,3.558,3.558,0,0,1,1.834.476,3.374,3.374,0,0,1,1.274,1.323,3.984,3.984,0,0,1,.462,1.939ZM50.946-6.566a2.5,2.5,0,0,0-1.785.679,2.667,2.667,0,0,0-.819,1.771h5.222a2.667,2.667,0,0,0-.819-1.771A2.522,2.522,0,0,0,50.946-6.566Zm12.348-.8L60.018,0H59L55.734-7.364H56.77l2.758,6.272,2.786-6.272Zm8.3,3.99h-6.16a2.632,2.632,0,0,0,.882,1.855,2.928,2.928,0,0,0,2.016.707,3.177,3.177,0,0,0,1.26-.245,2.752,2.752,0,0,0,.994-.721l.56.644a3.153,3.153,0,0,1-1.225.9A4.143,4.143,0,0,1,68.306.07,4.088,4.088,0,0,1,66.3-.413,3.482,3.482,0,0,1,64.932-1.75a3.812,3.812,0,0,1-.49-1.932,3.947,3.947,0,0,1,.469-1.932A3.4,3.4,0,0,1,66.2-6.944,3.6,3.6,0,0,1,68.04-7.42a3.558,3.558,0,0,1,1.834.476,3.374,3.374,0,0,1,1.274,1.323,3.984,3.984,0,0,1,.462,1.939ZM68.04-6.566a2.5,2.5,0,0,0-1.785.679,2.667,2.667,0,0,0-.819,1.771h5.222a2.667,2.667,0,0,0-.819-1.771A2.522,2.522,0,0,0,68.04-6.566Zm6.3-3.822h.994V0H74.34ZM81.816.07A3.827,3.827,0,0,1,79.9-.413,3.522,3.522,0,0,1,78.554-1.75a3.812,3.812,0,0,1-.49-1.932,3.812,3.812,0,0,1,.49-1.932A3.472,3.472,0,0,1,79.9-6.944a3.872,3.872,0,0,1,1.918-.476,3.872,3.872,0,0,1,1.918.476,3.424,3.424,0,0,1,1.337,1.33,3.855,3.855,0,0,1,.483,1.932,3.855,3.855,0,0,1-.483,1.932A3.473,3.473,0,0,1,83.734-.413,3.827,3.827,0,0,1,81.816.07Zm0-.882a2.779,2.779,0,0,0,1.407-.357A2.489,2.489,0,0,0,84.2-2.184a3.14,3.14,0,0,0,.35-1.5,3.14,3.14,0,0,0-.35-1.5A2.489,2.489,0,0,0,83.223-6.2a2.779,2.779,0,0,0-1.407-.357,2.779,2.779,0,0,0-1.407.357,2.535,2.535,0,0,0-.98,1.015,3.09,3.09,0,0,0-.357,1.5,3.09,3.09,0,0,0,.357,1.5,2.535,2.535,0,0,0,.98,1.015A2.779,2.779,0,0,0,81.816-.812ZM92.078-7.42a3.782,3.782,0,0,1,1.876.469A3.354,3.354,0,0,1,95.27-5.628a3.929,3.929,0,0,1,.476,1.946,3.958,3.958,0,0,1-.476,1.96A3.367,3.367,0,0,1,93.961-.4,3.771,3.771,0,0,1,92.078.07,3.482,3.482,0,0,1,90.461-.3a3.064,3.064,0,0,1-1.183-1.085v4.1h-.994V-7.364h.952v1.456a3.062,3.062,0,0,1,1.183-1.12A3.47,3.47,0,0,1,92.078-7.42Zm-.07,6.608a2.79,2.79,0,0,0,1.4-.357A2.522,2.522,0,0,0,94.4-2.184a3.091,3.091,0,0,0,.357-1.5A3.05,3.05,0,0,0,94.4-5.173a2.581,2.581,0,0,0-.987-1.015,2.748,2.748,0,0,0-1.4-.364,2.737,2.737,0,0,0-1.407.364,2.6,2.6,0,0,0-.98,1.015,3.05,3.05,0,0,0-.357,1.491,3.09,3.09,0,0,0,.357,1.5,2.535,2.535,0,0,0,.98,1.015A2.779,2.779,0,0,0,92.008-.812ZM107.66-7.42a2.927,2.927,0,0,1,2.177.8,3.206,3.206,0,0,1,.791,2.352V0h-.994V-4.172a2.5,2.5,0,0,0-.553-1.75,2.013,2.013,0,0,0-1.561-.6,2.346,2.346,0,0,0-1.806.707,2.755,2.755,0,0,0-.658,1.953V0h-.994V-4.172a2.5,2.5,0,0,0-.553-1.75,2.031,2.031,0,0,0-1.575-.6,2.351,2.351,0,0,0-1.8.707,2.737,2.737,0,0,0-.665,1.953V0h-.994V-7.364h.952V-6.02a2.656,2.656,0,0,1,1.092-1.036,3.44,3.44,0,0,1,1.61-.364,3.151,3.151,0,0,1,1.6.392,2.41,2.41,0,0,1,1.015,1.162,2.869,2.869,0,0,1,1.169-1.141A3.6,3.6,0,0,1,107.66-7.42Zm12.81,4.046h-6.16a2.632,2.632,0,0,0,.882,1.855,2.928,2.928,0,0,0,2.016.707,3.177,3.177,0,0,0,1.26-.245,2.752,2.752,0,0,0,.994-.721l.56.644a3.153,3.153,0,0,1-1.225.9A4.143,4.143,0,0,1,117.18.07a4.088,4.088,0,0,1-2.009-.483,3.482,3.482,0,0,1-1.365-1.337,3.812,3.812,0,0,1-.49-1.932,3.947,3.947,0,0,1,.469-1.932,3.4,3.4,0,0,1,1.288-1.33,3.6,3.6,0,0,1,1.841-.476,3.558,3.558,0,0,1,1.834.476,3.374,3.374,0,0,1,1.274,1.323,3.984,3.984,0,0,1,.462,1.939Zm-3.556-3.192a2.5,2.5,0,0,0-1.785.679,2.667,2.667,0,0,0-.819,1.771h5.222a2.667,2.667,0,0,0-.819-1.771A2.522,2.522,0,0,0,116.914-6.566Zm10.052-.854a3.009,3.009,0,0,1,2.205.805,3.144,3.144,0,0,1,.819,2.345V0H129V-4.172a2.441,2.441,0,0,0-.574-1.75,2.156,2.156,0,0,0-1.638-.6,2.516,2.516,0,0,0-1.883.707,2.67,2.67,0,0,0-.693,1.953V0h-.994V-7.364h.952v1.358a2.765,2.765,0,0,1,1.127-1.043A3.607,3.607,0,0,1,126.966-7.42Zm10.3,6.972a1.882,1.882,0,0,1-.693.385,2.791,2.791,0,0,1-.861.133,2.159,2.159,0,0,1-1.6-.56,2.139,2.139,0,0,1-.56-1.582V-6.524h-1.316v-.84h1.316v-1.61h.994v1.61h2.24v.84h-2.24v4.4a1.391,1.391,0,0,0,.329,1,1.248,1.248,0,0,0,.945.343,1.829,1.829,0,0,0,.6-.1,1.479,1.479,0,0,0,.5-.28Z" transform="translate(935 488)" fill="#fff"/><line x1="160" transform="translate(913.5 472.5)" fill="none" stroke="#37d36a" stroke-width="1"/></g></svg>