<svg xmlns="http://www.w3.org/2000/svg" width="29" height="29" viewBox="0 0 29 29"><path d="M14.544,6.451a7.977,7.977,0,0,0-6.56,12.5l-.8,2.939,3.014-.79A7.968,7.968,0,1,0,14.544,6.451Zm4.684,11.386a2.466,2.466,0,0,1-1.616,1.138,3.3,3.3,0,0,1-1.508-.094,13.578,13.578,0,0,1-1.364-.5,10.673,10.673,0,0,1-4.089-3.614,4.654,4.654,0,0,1-.978-2.476,2.691,2.691,0,0,1,.837-2,.876.876,0,0,1,.638-.3l.459.008c.147.007.344-.056.539.411s.678,1.658.738,1.777a.439.439,0,0,1,.019.419,1.619,1.619,0,0,1-.239.4l-.359.419c-.12.12-.244.249-.105.488a7.227,7.227,0,0,0,1.332,1.658,6.534,6.534,0,0,0,1.925,1.188c.239.12.379.1.518-.06s.6-.7.758-.939.319-.2.539-.12,1.4.659,1.636.779.4.18.459.279a2.021,2.021,0,0,1-.14,1.142ZM22.958,0H6.042A6.042,6.042,0,0,0,0,6.042V22.958A6.042,6.042,0,0,0,6.042,29H22.958A6.042,6.042,0,0,0,29,22.958V6.042A6.042,6.042,0,0,0,22.958,0ZM14.54,24a9.575,9.575,0,0,1-4.582-1.166L4.879,24.167,6.239,19.2a9.581,9.581,0,1,1,8.3,4.8Z" fill="#f3f3f3"/></svg>